<svg width="64" height="64" viewBox="0 0 64 64" fill="none" xmlns="http://www.w3.org/2000/svg">
  <g fill="#F97316">
    <path d="M32 8C37.5228 8 42 12.4772 42 18V24H32C26.4772 24 22 19.5228 22 14V8H32Z"/>
    <path d="M46 22C51.5228 22 56 26.4772 56 32V38H46C40.4772 38 36 33.5228 36 28V22H46Z"/>
    <path d="M32 40C37.5228 40 42 44.4772 42 50V56H32C26.4772 56 22 51.5228 22 46V40H32Z"/>
    <path d="M18 22C23.5228 22 28 26.4772 28 32V38H18C12.4772 38 8 33.5228 8 28V22H18Z"/>
    <path d="M24 24H40V40H24V24Z"/>
  </g>
  <path d="M32 27L37 32L32 37L27 32L32 27Z" fill="white"/>
</svg>
