<svg width="64" height="64" viewBox="0 0 64 64" fill="none" xmlns="http://www.w3.org/2000/svg">
  <rect x="6" y="6" width="52" height="52" rx="18" fill="url(#paint0_linear)"/>
  <path d="M20 24.5C20 21.4624 22.4624 19 25.5 19H35.25C41.7393 19 47 24.2607 47 30.75C47 37.2393 41.7393 42.5 35.25 42.5H31.75L24.8215 47.7975C23.8319 48.5542 22.4 47.8484 22.4 46.6025V42.1548C20.9636 41.0902 20 39.3856 20 37.4562V24.5Z" fill="white" fill-opacity="0.14"/>
  <path d="M26.5 22H35C40.5228 22 45 26.4772 45 32C45 37.5228 40.5228 42 35 42H31.0138L25.1268 46.4741C24.4698 46.9733 23.5277 46.5044 23.5277 45.6793V40.1953C21.9917 39.2168 21 37.4985 21 35.5488V27.5C21 24.4624 23.4624 22 26.5 22Z" stroke="white" stroke-width="2.4"/>
  <path d="M28 27H35.25C37.8734 27 40 29.1266 40 31.75C40 34.3734 37.8734 36.5 35.25 36.5H33.25L29.4 39.3964V36.5H28C25.7909 36.5 24 34.7091 24 32.5V31C24 28.7909 25.7909 27 28 27Z" fill="white"/>
  <path d="M32 30.25H34.75C35.9926 30.25 37 31.2574 37 32.5C37 33.7426 35.9926 34.75 34.75 34.75H31.75L29.75 36.25V34.75H29C27.7574 34.75 26.75 33.7426 26.75 32.5C26.75 31.2574 27.7574 30.25 29 30.25H30" stroke="url(#paint1_linear)" stroke-width="2.2" stroke-linecap="round" stroke-linejoin="round"/>
  <circle cx="29.5" cy="32.5" r="1.3" fill="#0F172A"/>
  <circle cx="33.25" cy="32.5" r="1.3" fill="#0F172A"/>
  <circle cx="37" cy="32.5" r="1.3" fill="#0F172A"/>
  <defs>
    <linearGradient id="paint0_linear" x1="12" y1="10" x2="54" y2="56" gradientUnits="userSpaceOnUse">
      <stop stop-color="#0F172A"/>
      <stop offset="0.55" stop-color="#1D4ED8"/>
      <stop offset="1" stop-color="#06B6D4"/>
    </linearGradient>
    <linearGradient id="paint1_linear" x1="26.75" y1="30.25" x2="36.6517" y2="37.2311" gradientUnits="userSpaceOnUse">
      <stop stop-color="#2563EB"/>
      <stop offset="1" stop-color="#14B8A6"/>
    </linearGradient>
  </defs>
</svg>
